Patient4_TMGait_0pt5_02_right_25_GRF.mot
version=1
nRows=79
nColumns=19
inDegrees=no
endheader
time	F1x	F1y	F1z	M1x	M1y	M1z	F2x	F2y	F2z	M2x	M2y	M2z	EC1x	EC1y	EC1z	EC2x	EC2y	EC2z
32.59	-1.5224	736.0277	57.7925	-260.095	-41.5761	584.1493	-1.076	-0.74715	-9.852	2.6186	13.0963	1.1089	-0.0592	0.0182	-0.0073	-0.0462	0.0165	0.9585
32.603	-1.2441	736.9863	58.3021	-260.1062	-41.4566	582.5505	-0.8365	0.21691	-6.7439	2.0665	9.0524	1.428	-0.0592	0.0182	-0.0073	-0.0462	0.0165	0.9585
32.616	-0.9962	738.781	58.554	-260.335	-41.1357	581.2445	-0.64016	1.039	-4.084	1.597	5.5782	1.6857	-0.0592	0.0182	-0.0073	-0.0462	0.0165	0.9585
32.629	-0.73107	741.4756	58.4425	-260.8486	-40.5441	580.3187	-0.49776	1.6887	-2.0457	1.2479	2.9076	1.8924	-0.0592	0.0182	-0.0073	-0.0462	0.0165	0.9585
32.642	-0.37363	744.9658	57.9215	-261.6582	-39.6399	579.724	-0.41327	2.1774	-0.63535	1.0218	1.0543	2.0716	-0.0592	0.0182	-0.0073	-0.0462	0.0165	0.9585
32.655	0.18312	748.985	56.9967	-262.7083	-38.404	579.2641	-0.37977	2.5169	0.23421	0.8968	-0.092403	2.2195	-0.0592	0.0182	-0.0073	-0.0462	0.0165	0.9585
32.668	1.0323	753.1582	55.733	-263.8899	-36.8596	578.6688	-0.39036	2.709	0.68968	0.83634	-0.69354	2.3147	-0.0592	0.0182	-0.0073	-0.0462	0.0165	0.9585
32.681	2.2443	757.0543	54.2323	-265.0569	-35.0557	577.6461	-0.43237	2.7473	0.86133	0.79837	-0.91598	2.3237	-0.0592	0.0182	-0.0073	-0.0462	0.0165	0.9585
32.694	3.8476	760.2368	52.6183	-266.0465	-33.0671	575.9021	-0.50215	2.598	0.85481	0.73569	-0.89486	2.1961	-0.0592	0.0182	-0.0073	-0.0462	0.0165	0.9585
32.707	5.8238	762.3216	51.0201	-266.7018	-30.9904	573.189	-0.59236	2.1976	0.75168	0.59782	-0.73782	1.8572	-0.0592	0.0182	-0.0073	-0.0462	0.0165	0.9585
32.72	8.1444	763.0209	49.5538	-266.8968	-28.917	569.3325	-0.69319	1.4619	0.60353	0.33351	-0.52152	1.2169	-0.0592	0.0182	-0.0073	-0.0462	0.0165	0.9585
32.733	10.7598	762.211	48.3105	-266.5653	-26.9264	564.2985	-0.79129	0.31075	0.44753	-0.099964	-0.30159	0.19529	-0.0592	0.0182	-0.0073	-0.0462	0.0165	0.9585
32.746	13.6293	759.9553	47.3486	-265.7144	-25.067	558.1777	-0.85639	-1.3023	0.30229	-0.72589	-0.11188	-1.2557	-0.0592	0.0182	-0.0073	-0.0462	0.0165	0.9585
32.759	16.7093	756.4941	46.7157	-264.4165	-23.3796	551.1904	-0.85344	-3.3585	0.18602	-1.5367	0.014731	-3.1181	-0.0592	0.0182	-0.0073	-0.0462	0.0165	0.9585
32.772	19.9437	752.1917	46.4407	-262.7942	-21.8948	543.6359	-0.72162	-5.7077	0.11116	-2.471	0.045497	-5.2533	-0.0592	0.0182	-0.0073	-0.0462	0.0165	0.9585
32.785	23.2711	747.4847	46.5503	-260.9997	-20.6449	535.8554	-0.38596	-7.9921	0.10122	-3.3833	-0.068319	-7.3282	-0.0592	0.0182	-0.0073	-0.0462	0.0165	0.9585
32.798	26.6307	742.8413	47.0294	-259.2012	-19.6313	528.2002	0.23709	-9.5658	0.17629	-4.0104	-0.37441	-8.7522	-0.0592	0.0182	-0.0073	-0.0462	0.0165	0.9585
32.811	29.9856	738.6579	47.8444	-257.5456	-18.8459	520.9544	1.221	-9.4109	0.36949	-3.9376	-0.928	-8.5891	-0.0592	0.0182	-0.0073	-0.0462	0.0165	0.9585
32.824	33.3268	735.1572	48.9048	-256.1206	-18.2342	514.2782	2.602	-6.0807	0.71052	-2.5769	-1.7644	-5.5095	-0.0592	0.0182	-0.0073	-0.0462	0.0165	0.9585
32.837	36.6673	732.2627	50.0857	-254.9083	-17.7156	508.1288	4.3554	2.2803	1.2369	0.82551	-2.9005	2.1865	-0.0592	0.0182	-0.0073	-0.0462	0.0165	0.9585
32.85	40.0392	729.5326	51.2048	-253.7644	-17.1625	502.2222	6.3357	17.8029	1.9689	7.1324	-4.2949	16.4566	-0.0592	0.0182	-0.0073	-0.0462	0.0165	0.9585
32.863	43.4553	726.1504	52.0551	-252.4146	-16.4419	496.0442	8.2242	42.5488	2.9008	17.178	-5.8136	39.1904	-0.0592	0.0182	-0.0073	-0.0462	0.0165	0.9585
32.876	46.8456	720.9837	52.3897	-250.4706	-15.4242	488.9062	9.4454	77.9416	3.9609	31.5351	-7.1637	71.6914	-0.0592	0.0182	-0.0073	-0.0462	0.0165	0.9585
32.889	50.0446	712.6576	51.9537	-247.4533	-14.0099	479.9856	9.1236	123.8447	4.9825	50.1458	-7.8493	113.8174	-0.0592	0.0182	-0.0073	-0.0462	0.0165	0.9585
32.902	52.8082	699.677	50.5082	-242.8423	-12.139	468.3952	6.2259	177.4542	5.6514	71.869	-7.1871	162.9714	-0.0592	0.0182	-0.0073	-0.0462	0.0165	0.9585
32.915	54.8417	680.6499	47.8958	-236.1589	-9.8238	453.3044	0.71183	232.9685	5.4965	94.3254	-4.7438	213.8097	-0.0592	0.0182	-0.0073	-0.0462	0.0165	0.9585
32.928	55.9062	654.5954	44.0937	-227.0738	-7.1443	434.1037	-5.9385	283.0668	3.8822	114.5265	-0.54601	259.4742	-0.0592	0.0182	-0.0073	-0.0462	0.0165	0.9585
32.941	55.866	621.2031	39.2659	-215.4881	-4.2531	410.5827	-12.1384	322.9842	0.96417	130.5472	4.5969	295.4058	-0.0592	0.0182	-0.0073	-0.0462	0.0165	0.9585
32.954	54.6963	580.7982	33.7551	-201.5135	-1.3683	382.9099	-16.995	352.3414	-2.8077	142.2462	9.9115	321.133	-0.0592	0.0182	-0.0073	-0.0462	0.0165	0.9585
32.967	52.4671	534.2436	27.9746	-185.4373	1.2914	351.5866	-20.2658	373.7682	-6.7209	150.7194	14.6367	339.0744	-0.0592	0.0182	-0.0073	-0.0462	0.0165	0.9585
32.98	49.2719	482.8311	22.2933	-167.6919	3.5519	317.3856	-22.1197	391.1737	-10.3356	157.5716	18.451	352.8525	-0.0592	0.0182	-0.0073	-0.0462	0.0165	0.9585
32.993	45.1856	428.1673	16.9976	-148.8153	5.2832	281.2999	-22.8631	408.5403	-13.2682	164.433	21.1416	366.1009	-0.0592	0.0182	-0.0073	-0.0462	0.0165	0.9585
33.006	40.2709	371.9862	12.319	-129.3901	6.3741	244.4077	-22.8111	429.1582	-15.5715	172.624	22.9058	381.8004	-0.0592	0.0182	-0.0073	-0.0462	0.0165	0.9585
33.019	34.5815	316.0605	8.4184	-110.0145	6.7505	207.8366	-22.257	455.2452	-17.458	183.015	24.0662	401.9404	-0.0592	0.0182	-0.0073	-0.0462	0.0165	0.9585
33.032	28.2192	262.1218	5.4015	-91.2834	6.3734	172.6757	-21.5304	487.6999	-19.5147	195.916	25.2867	427.3721	-0.0592	0.0182	-0.0073	-0.0462	0.0165	0.9585
33.045	21.3784	211.8241	3.2539	-73.7756	5.3115	139.9581	-20.9428	526.108	-22.2286	211.1132	27.1177	457.7559	-0.0592	0.0182	-0.0073	-0.0462	0.0165	0.9585
33.058	14.398	166.5858	1.8874	-57.9988	3.7277	110.549	-20.8388	569.081	-26.0561	228.0052	30.0876	491.9285	-0.0592	0.0182	-0.0073	-0.0462	0.0165	0.9585
33.071	7.7458	127.406	1.1467	-44.3198	1.8783	85.0402	-21.3992	614.6383	-30.9915	245.7878	34.2453	528.1869	-0.0592	0.0182	-0.0073	-0.0462	0.0165	0.9585
33.084	1.889	94.6607	0.85727	-32.8858	0.031304	63.6492	-22.596	660.5024	-36.76	263.5615	39.33	564.5744	-0.0592	0.0182	-0.0073	-0.0462	0.0165	0.9585
33.097	-2.7979	68.1235	0.82456	-23.6276	-1.561	46.204	-24.185	704.273	-42.7342	280.405	44.6944	598.9951	-0.0592	0.0182	-0.0073	-0.0462	0.0165	0.9585
33.11	-6.1032	47.1787	0.90104	-16.3307	-2.7362	32.3251	-25.8573	743.5641	-48.372	295.4087	49.7601	629.3868	-0.0592	0.0182	-0.0073	-0.0462	0.0165	0.9585
33.123	-7.9121	31.0436	0.95106	-10.7221	-3.37	21.536	-27.3461	776.2366	-53.2347	307.7551	54.0491	653.9523	-0.0592	0.0182	-0.0073	-0.0462	0.0165	0.9585
33.136	-8.2573	18.9368	0.89924	-6.5281	-3.4294	13.3716	-28.4173	800.6369	-57.2043	316.8025	57.3838	671.3426	-0.0592	0.0182	-0.0073	-0.0462	0.0165	0.9585
33.149	-7.3273	10.1589	0.71465	-3.502	-2.9647	7.4021	-28.8963	815.8475	-60.2443	322.1933	59.6711	680.8628	-0.0592	0.0182	-0.0073	-0.0462	0.0165	0.9585
33.162	-5.6123	4.1795	0.44667	-1.4531	-2.1856	3.2963	-28.6354	821.8111	-62.4292	323.91	60.9337	682.5344	-0.0592	0.0182	-0.0073	-0.0462	0.0165	0.9585
33.175	-3.7218	0.54672	0.16234	-0.2165	-1.3438	0.79306	-27.5598	819.3869	-63.7749	322.3004	61.171	677.1531	-0.0592	0.0182	-0.0073	-0.0462	0.0165	0.9585
33.188	-1.9911	-1.3184	-0.076469	0.41101	-0.59874	-0.4902	-25.6862	810.2114	-64.3503	318.019	60.4691	666.1573	-0.0592	0.0182	-0.0073	-0.0462	0.0165	0.9585
33.201	-0.60391	-1.9528	-0.26885	0.61963	-0.001338	-0.89894	-23.1368	796.4344	-64.2293	311.9174	58.9494	651.4029	-0.0592	0.0182	-0.0073	-0.0462	0.0165	0.9585
33.214	0.41879	-1.8233	-0.4021	0.57251	0.42913	-0.78028	-20.1215	780.3166	-63.6006	304.8833	56.8623	634.822	-0.0592	0.0182	-0.0073	-0.0462	0.0165	0.9585
33.227	1.097	-1.2823	-0.49837	0.39073	0.71795	-0.38122	-16.8944	763.9411	-62.6391	297.7366	54.4571	618.1598	-0.0592	0.0182	-0.0073	-0.0462	0.0165	0.9585
33.24	1.4972	-0.57692	-0.55896	0.15675	0.88322	0.12684	-13.6979	749.0919	-61.5231	291.1819	51.9798	602.8745	-0.0592	0.0182	-0.0073	-0.0462	0.0165	0.9585
33.253	1.693	0.13425	-0.59896	-0.078198	0.96453	0.63688	-10.7049	737.1711	-60.3495	285.7825	49.5736	590.0646	-0.0592	0.0182	-0.0073	-0.0462	0.0165	0.9585
33.266	1.7332	0.75875	-0.61827	-0.28328	0.97976	1.0946	-8.007	729.1185	-59.2184	281.9247	47.3527	580.4139	-0.0592	0.0182	-0.0073	-0.0462	0.0165	0.9585
33.279	1.6784	1.236	-0.62301	-0.44039	0.95522	1.4325	-5.6097	725.363	-58.1853	279.7971	45.3568	574.163	-0.0592	0.0182	-0.0073	-0.0462	0.0165	0.9585
33.292	1.5433	1.5389	-0.61064	-0.53803	0.89213	1.6397	-3.4607	725.8322	-57.3134	279.3898	43.6068	571.1507	-0.0592	0.0182	-0.0073	-0.0462	0.0165	0.9585
33.305	1.3646	1.6134	-0.59373	-0.55989	0.81006	1.6502	-1.4694	730.0144	-56.6198	280.5174	42.0682	570.8752	-0.0592	0.0182	-0.0073	-0.0462	0.0165	0.9585
33.318	1.1395	1.4136	-0.56619	-0.48936	0.70109	1.426	0.44694	737.0368	-56.1038	282.8477	40.7041	572.587	-0.0592	0.0182	-0.0073	-0.0462	0.0165	0.9585
33.331	0.88433	0.8756	-0.53608	-0.30598	0.58035	0.89665	2.3534	745.7603	-55.7238	285.9389	39.4565	575.3771	-0.0592	0.0182	-0.0073	-0.0462	0.0165	0.9585
33.344	0.62564	-0.075859	-0.495	0.016677	0.45252	-0.0066039	4.2795	754.8648	-55.4326	289.2718	38.2833	578.2462	-0.0592	0.0182	-0.0073	-0.0462	0.0165	0.9585
33.357	0.40175	-1.493	-0.46007	0.49992	0.34848	-1.3245	6.1988	762.9746	-55.1594	292.3004	37.1462	580.1964	-0.0592	0.0182	-0.0073	-0.0462	0.0165	0.9585
33.37	0.28896	-3.3971	-0.42286	1.1577	0.28458	-3.0858	8.0326	768.8245	-54.8328	294.5173	36.0294	580.3611	-0.0592	0.0182	-0.0073	-0.0462	0.0165	0.9585
33.383	0.37473	-5.6946	-0.40755	1.9617	0.31259	-5.2074	9.6835	771.4582	-54.3649	295.5335	34.9095	578.1368	-0.0592	0.0182	-0.0073	-0.0462	0.0165	0.9585
33.396	0.80402	-8.145	-0.40484	2.8269	0.46957	-7.4812	11.0551	770.2379	-53.7002	295.0844	33.7869	573.159	-0.0592	0.0182	-0.0073	-0.0462	0.0165	0.9585
33.409	1.7279	-10.2413	-0.43951	3.5716	0.83131	-9.4418	12.0768	764.8646	-52.8542	293.0364	32.6976	565.307	-0.0592	0.0182	-0.0073	-0.0462	0.0165	0.9585
33.422	3.3327	-11.157	-0.50896	3.8971	1.464	-10.3449	12.7384	755.4682	-51.9104	289.4266	31.6951	554.7451	-0.0592	0.0182	-0.0073	-0.0462	0.0165	0.9585
33.435	5.777	-9.6481	-0.63195	3.3517	2.4462	-9.0504	13.0955	742.6477	-51.0032	284.4792	30.8387	541.9524	-0.0592	0.0182	-0.0073	-0.0462	0.0165	0.9585
33.448	9.1393	-4.0443	-0.79798	1.3266	3.802	-4.0152	13.2694	727.3392	-50.2457	278.5574	30.145	527.6189	-0.0592	0.0182	-0.0073	-0.0462	0.0165	0.9585
33.461	13.3396	7.6896	-1.0047	-2.9204	5.5034	6.6393	13.383	710.5926	-49.6943	272.0723	29.5971	512.5138	-0.0592	0.0182	-0.0073	-0.0462	0.0165	0.9585
33.474	17.9845	27.743	-1.2129	-10.1848	7.3753	24.9634	13.5575	693.2538	-49.3303	265.3564	29.1383	497.2561	-0.0592	0.0182	-0.0073	-0.0462	0.0165	0.9585
33.487	22.2649	57.9956	-1.3699	-21.1516	9.0748	52.7199	13.8508	675.6966	-49.0772	258.5542	28.7037	482.154	-0.0592	0.0182	-0.0073	-0.0462	0.0165	0.9585
33.5	24.764	99.3412	-1.379	-36.1438	10.0046	90.8007	14.2428	657.699	-48.8011	251.5773	28.22	467.1159	-0.0592	0.0182	-0.0073	-0.0462	0.0165	0.9585
33.513	23.7413	150.9448	-1.1004	-54.8576	9.4126	138.5106	14.6528	638.5831	-48.326	244.1617	27.613	451.731	-0.0592	0.0182	-0.0073	-0.0462	0.0165	0.9585
33.526	18.284	210.0938	-0.33081	-76.2959	6.7872	193.4248	14.9701	617.5342	-47.4463	235.9965	26.7992	435.4771	-0.0592	0.0182	-0.0073	-0.0462	0.0165	0.9585
33.539	9.4716	272.1693	1.2771	-98.7421	2.1821	251.2393	15.1112	593.86	-45.9801	226.8246	25.7011	417.864	-0.0592	0.0182	-0.0073	-0.0462	0.0165	0.9585
33.552	-0.69507	330.7384	4.1861	-119.8471	-4.1213	305.7371	15.0404	567.0839	-43.8513	216.4795	24.294	398.5045	-0.0592	0.0182	-0.0073	-0.0462	0.0165	0.9585
33.565	-10.5273	381.2963	8.0908	-137.9901	-11.2048	352.4753	14.8116	537.0063	-41.1257	204.9024	22.6083	377.1422	-0.0592	0.0182	-0.0073	-0.0462	0.0165	0.9585
33.578	-18.9945	422.7649	12.2257	-152.8158	-17.9594	390.3141	14.5482	503.7154	-38.0073	192.1364	20.7159	353.7066	-0.0592	0.0182	-0.0073	-0.0462	0.0165	0.9585
33.591	-25.5543	455.956	16.1703	-164.6472	-23.8021	419.994	14.3779	467.4363	-34.8087	178.2644	18.7584	328.2418	-0.0592	0.0182	-0.0073	-0.0462	0.0165	0.9585
33.604	-30.0585	482.3902	19.5633	-174.0562	-28.3509	442.9304	14.2788	428.4806	-31.7104	163.3972	16.8362	300.8991	-0.0592	0.0182	-0.0073	-0.0462	0.0165	0.9585
